<svg xmlns="http://www.w3.org/2000/svg" version="1.1" xmlns:xlink="http://www.w3.org/1999/xlink" xmlns:svgjs="http://svgjs.dev/svgjs" width="1000" height="1000" preserveAspectRatio="none" viewBox="0 0 1000 1000"><g mask="url(&quot;#SvgjsMask1279&quot;)" fill="none"><path d="M0 58.82C20.89 10.07 49.51 13.56 107.14 0C174.51 -15.85 178.57 0 250 0C375 0 375 0 500 0C625 0 625 0 750 0C875 0 928.44 -53.44 1000 0C1053.44 39.91 1036.92 116.56 1000 186.71C971.13 241.56 868.42 216.94 868.42 250C868.42 283.79 970.14 263.69 1000 320.42C1035.93 388.69 1000 410.21 1000 500C1000 591.07 1052.16 634.33 1000 682.14C927.16 748.91 872.71 699.78 750 729.17C731.04 733.71 716.67 738.67 716.67 750C716.67 762.24 729.7 771.24 750 776.32C871.37 806.69 926.7 755.32 1000 820.9C1051.7 867.16 1052.17 962.62 1000 1000C927.17 1052.17 875 1000 750 1000C625 1000 625 1000 500 1000C387.5 1000 315.03 1058.5 275 1000C229.5 933.5 337.13 867.67 328.95 750C324.63 687.79 285.08 640.24 250 640.24C218.16 640.24 197.52 691.28 195.12 750C190.17 871.16 285.86 935.21 235.29 1000C188.3 1060.21 57.04 1060.61 0 1000C-60.61 935.61 0 875 0 750C0 625 0 625 0 500C0 375 0 375 0 250C0 154.41 -32.68 135.07 0 58.82" stroke="rgba(135, 29, 193, 1)" stroke-width="2"></path><path d="M500 445.4C447.91 445.4 386.9 467.68 386.9 500C386.9 535.93 450.59 581.9 500 581.9C535.08 581.9 555.88 538.17 555.88 500C555.88 469.92 532.4 445.4 500 445.4" stroke="rgba(135, 29, 193, 1)" stroke-width="2"></path><path d="M0 181.37C34.36 181.37 69.36 200.77 106.06 250C188.11 360.08 234.26 373.72 237.5 500C240.68 623.72 151.66 618.68 118.9 750C89.29 868.68 153.73 913.84 112.75 1000C94.28 1038.84 17.52 1038.85 0 1000C-38.85 913.85 0 875 0 750C0 625 0 625 0 500C0 375 0 375 0 250C0 215.69 -18.67 181.37 0 181.37" stroke="rgba(135, 29, 193, 1)" stroke-width="2"></path><path d="M326.61 250C289.31 148.65 306.37 80.94 362.5 0C393.06 -44.06 431.25 0 500 0C591.66 0 638.06 -52.64 683.33 0C745.56 72.36 687.23 130.7 715 250C720.57 273.93 728.09 274.28 750 286.46C870.59 353.5 905.95 328.12 1000 408.45C1030.95 434.89 1000 454.22 1000 500C1000 546.43 1033.38 573.85 1000 592.86C908.38 645.03 856.98 669.17 750 642.36C671.68 622.74 692.87 568.23 629.41 500C567.87 433.83 569.55 430.98 500 373.56C418.15 305.98 358.06 335.43 326.61 250" stroke="rgba(135, 29, 193, 1)" stroke-width="2"></path><path d="M1000 107.59C921.98 107.59 776.32 28.3 776.32 0C776.32 -25.5 924.48 -36.32 1000 0C1036.32 17.47 1033.82 107.59 1000 107.59" stroke="rgba(135, 29, 193, 1)" stroke-width="2"></path><path d="M438.6 750C440.71 710.72 467.53 689.66 500 689.66C537.12 689.66 539.07 719.6 577.78 750C664.07 817.75 651.65 847.72 750 885.96C862.76 929.81 906.79 871.66 1000 914.18C1031.79 928.68 1031.94 989.03 1000 1000C906.94 1031.94 875 1000 750 1000C625 1000 625 1000 500 1000C491.66 1000 485.22 1007.7 483.33 1000C454.52 882.7 432.38 865.89 438.6 750" stroke="rgba(135, 29, 193, 1)" stroke-width="2"></path><path d="M427.42 250C427.42 188.48 460.44 109.38 500 109.38C541.73 109.38 590 190.7 590 250C590 286.87 543.74 301.72 500 301.72C462.45 301.72 427.42 284.65 427.42 250" stroke="rgba(135, 29, 193, 1)" stroke-width="2"></path><path d="M1000 28.48C979.35 28.48 940.79 7.49 940.79 0C940.79 -6.75 980.01 -9.62 1000 0C1009.62 4.62 1008.95 28.48 1000 28.48" stroke="rgba(135, 29, 193, 1)" stroke-width="2"></path><path d="M0 364.58C21.87 364.58 73.05 425.93 81.25 500C94.39 618.64 64.28 625.4 42.68 750C23.65 859.78 10.77 968.75 0 968.75C-10.57 968.75 0 859.38 0 750C0 625 0 625 0 500C0 432.29 -18.75 364.58 0 364.58" stroke="rgba(135, 29, 193, 1)" stroke-width="2"></path><path d="M702.94 500C702.94 460.56 710.31 417.14 750 416.67C858.84 415.38 876.65 455.37 1000 496.48C1001.65 497.03 1000 498.24 1000 500C1000 501.78 1001.72 503.19 1000 503.57C876.72 530.97 865.57 556.95 750 555.56C717.04 555.16 702.94 530.01 702.94 500" stroke="rgba(135, 29, 193, 1)" stroke-width="2"></path><path d="M739.58 1000C739.58 998.86 744.41 995.61 750 995.61C791.28 995.61 833.33 998.9 833.33 1000C833.33 1001.1 791.66 1000 750 1000C744.79 1000 739.58 1001.05 739.58 1000" stroke="rgba(135, 29, 193, 1)" stroke-width="2"></path></g><defs><mask id="SvgjsMask1279"><rect width="1000" height="1000" fill="#ffffff"></rect></mask></defs></svg>