<svg xmlns="http://www.w3.org/2000/svg" version="1.1" xmlns:xlink="http://www.w3.org/1999/xlink" xmlns:svgjs="http://svgjs.dev/svgjs" width="1440" height="560" preserveAspectRatio="none" viewBox="0 0 1440 560"><g mask="url(&quot;#SvgjsMask1174&quot;)" fill="none"><path d="M0 115.65C6.77 115.65 8.2 133.39 23.33 140C78.2 163.98 84.64 176.84 140 176.84C168.43 176.84 184.35 167.36 190.91 140C205.56 78.94 156.15 41.28 182.42 0C200.7 -28.72 231.21 0 280 0C335.51 0 371.46 -30.75 391.03 0C416.01 39.25 359.55 76.47 369.09 140C374.03 172.89 389.48 192.83 420 192.83C473.27 192.83 531.63 181.67 536.67 140C543.29 85.25 436.44 41.34 443.33 0C448.11 -28.66 501.66 0 560 0C630 0 630 0 700 0C770 0 770 0 840 0C910 0 910 0 980 0C1050 0 1050 0 1120 0C1190 0 1190 0 1260 0C1330 0 1330 0 1400 0C1470 0 1505 -35 1540 0C1575 35 1540 70 1540 140C1540 210 1540 210 1540 280C1540 350 1540 350 1540 420C1540 490 1570.88 520.88 1540 560C1515.62 590.88 1478.98 572.38 1429.47 560C1408.98 554.88 1414.74 525 1400 525C1385.26 525 1391.02 554.88 1370.53 560C1321.02 572.38 1315.26 560 1260 560C1190 560 1190 560 1120 560C1050 560 1050 560 980 560C910 560 910 560 840 560C770 560 770 560 700 560C630 560 630 560 560 560C490 560 490 560 420 560C350 560 350 560 280 560C213.78 560 205.88 570.6 147.57 560C135.88 557.87 144.25 534.55 140 534.55C135.64 534.55 142.43 557.8 130.34 560C72.43 570.53 31.42 593.75 0 560C-33.75 523.75 0 490 0 420C0 350 0 350 0 280C0 210 0 210 0 140C0 127.82 -4.89 115.65 0 115.65" stroke="rgba(193, 29, 112, 1)" stroke-width="2"></path><path d="M980 80.68C954.75 80.68 923.55 108.9 923.55 140C923.55 175.02 955.19 212.92 980 212.92C1002.03 212.92 1017.23 175.64 1017.23 140C1017.23 109.52 1001.59 80.68 980 80.68" stroke="rgba(193, 29, 112, 1)" stroke-width="2"></path><path d="M840 250.21C828.02 250.21 822.5 265.19 822.5 280C822.5 294.37 828.14 308.57 840 308.57C858.1 308.57 882.42 294.49 882.42 280C882.42 265.31 857.98 250.21 840 250.21" stroke="rgba(193, 29, 112, 1)" stroke-width="2"></path><path d="M1120 274.17C1112.5 274.17 1103.85 276.64 1103.85 280C1103.85 283.52 1112.79 287.92 1120 287.92C1124.1 287.92 1126.46 283.71 1126.46 280C1126.46 276.84 1123.8 274.17 1120 274.17" stroke="rgba(29, 168, 193, 1)" stroke-width="2"></path><path d="M1400 203.91C1371.22 203.91 1359.77 241.11 1359.77 280C1359.77 326.45 1369.67 374.59 1400 374.59C1441.25 374.59 1502.94 324.55 1502.94 280C1502.94 239.21 1442.8 203.91 1400 203.91" stroke="rgba(193, 29, 112, 1)" stroke-width="2"></path><path d="M254.55 140C238.36 72.18 225.78 53.22 235.45 0C238.5 -16.78 257.73 0 280 0C305.35 0 327.35 -18.39 330.69 0C340.07 51.61 323.9 72.05 305.45 140C298.56 165.39 292.73 186.67 280 186.67C267.27 186.67 260.64 165.51 254.55 140" stroke="rgba(193, 29, 112, 1)" stroke-width="2"></path><path d="M560 87.5C523.75 45.73 491.94 27.11 491.94 0C491.94 -16.64 525.97 0 560 0C622.82 0 625.49 -6.33 685.64 0C695.49 1.04 690.97 9.94 700 14.74C768.15 50.98 780.82 37.7 840 82.07C864.37 100.33 867.1 112.47 867.1 140C867.1 159.31 851.95 156.8 840 175.74C807.78 226.8 778.75 228.15 778.75 280C778.75 330.28 798.99 341.81 840 380C874.16 411.81 885.9 397.5 929.09 420C955.9 433.97 956.17 452.94 980 452.94C998.59 452.94 994.72 433.59 1013.94 420C1064.72 384.1 1072.84 393.65 1120 353.96C1156.02 323.65 1180.31 314.68 1180.31 280C1180.31 250.48 1147.05 255.65 1120 225.56C1084.13 185.65 1084.91 184.4 1054.47 140C1014.91 82.3 1024.6 72.16 980 21.36C963.14 2.16 931.54 5.58 931.54 0C931.54 -5.1 955.77 0 980 0C1050 0 1050 0 1120 0C1190 0 1190 0 1260 0C1330 0 1330 0 1400 0C1470 0 1505 -35 1540 0C1575 35 1540 70 1540 140C1540 171.38 1557.98 202.76 1540 202.76C1504.45 202.76 1482.9 175.72 1432.94 140C1412.9 125.67 1413.91 102.67 1400 102.67C1388.41 102.67 1390.51 121.12 1381.94 140C1350.28 209.78 1352.31 210.74 1319.54 280C1291.34 339.61 1295.03 343.34 1260 397.73C1249.95 413.34 1244.87 409.12 1229.38 420C1174.87 458.3 1171.44 454.2 1120 496.09C1085.48 524.2 1094.96 542.88 1057.45 560C1024.96 574.83 1018.72 560 980 560C910 560 910 560 840 560C770 560 770 560 700 560C630 560 630 560 560 560C490 560 490 560 420 560C350 560 350 560 280 560C237.43 560 217.37 585.94 194.86 560C156.62 515.94 180.98 487.98 158.49 420C153.55 405.09 154.26 394.21 140 394.21C83.76 394.21 33.45 382.22 17.5 420C-1.55 465.12 75.96 512.32 70 560C67.21 582.32 11.67 583.33 0 560C-23.33 513.33 0 490 0 420C0 350 0 350 0 280C0 244.18 -23.61 218 0 208.37C46.39 189.45 74.87 202.17 140 222.89C187.42 237.98 183.36 250.32 225.1 280C253.36 300.09 249.81 322.42 280 322.42C327.26 322.42 330.58 302.43 380 280C400.58 270.66 398.31 258.87 420 258.87C480.53 258.87 544.44 258.62 544.44 280C544.44 304.18 468.03 303.68 420 350C395.44 373.68 399.26 385.99 399.26 420C399.26 440.99 400.43 455.13 420 460C480.8 475.13 494.3 473.41 560 460C592.3 453.41 615.52 448.35 616 420C617.04 358.35 563.68 350.21 563.04 280C562.4 210.21 614.46 204.02 613.45 140C612.94 107.77 584.5 115.73 560 87.5" stroke="rgba(29, 168, 193, 1)" stroke-width="2"></path><path d="M1444.39 420C1444.39 373.7 1511.57 330.91 1540 330.91C1559.38 330.91 1540 375.46 1540 420C1540 471.58 1560.23 523.16 1540 523.16C1512.42 523.16 1444.39 469.83 1444.39 420" stroke="rgba(135, 29, 193, 1)" stroke-width="2"></path><path d="M560 25C548.38 25 540.56 7.75 540.56 0C540.56 -4.75 550.28 0 560 0C577.95 0 595.9 -5.63 595.9 0C595.9 6.87 576.05 25 560 25" stroke="rgba(193, 29, 112, 1)" stroke-width="2"></path><path d="M677.09 140C683.71 121.17 684.83 106.84 700 106.84C724.92 106.84 751.7 112.45 757.27 140C769.2 199.03 743.97 209.72 735 280C726.1 349.72 695 366.92 721.54 420C747.5 471.92 779.17 458.02 840 490C908.4 525.96 910.78 521.99 980 555.88C982.27 556.99 982.98 558.7 982.98 560C982.98 560.76 981.49 560 980 560C910 560 910 560 840 560C770 560 770 560 700 560C630 560 630 560 560 560C504 560 448 570.7 448 560C448 548.48 508.03 545.17 560 515.56C630.92 475.17 673.11 481.53 693.78 420C712.68 363.75 643.38 351.24 639.13 280C635.03 211.24 653.27 207.75 677.09 140" stroke="rgba(193, 29, 112, 1)" stroke-width="2"></path><path d="M1091.7 140C1081.19 73.6 1080.21 58.33 1092 0C1094.36 -11.67 1106 0 1120 0C1190 0 1190 0 1260 0C1278.42 0 1295.91 -14.36 1296.84 0C1300.43 55.64 1273.45 69.42 1269.03 140C1264.68 209.42 1282.77 211.72 1279.31 280C1278.26 300.81 1270.87 318.18 1260 318.18C1248.29 318.18 1250.3 296.29 1234.15 280C1180.3 225.67 1174.68 230.68 1120 176.94C1103.45 160.68 1095.19 162.07 1091.7 140" stroke="rgba(193, 29, 112, 1)" stroke-width="2"></path><path d="M1540 77.78C1519.1 77.78 1467.59 23.13 1467.59 0C1467.59 -15.76 1522.54 -18.75 1540 0C1558.75 20.14 1555.3 77.78 1540 77.78" stroke="rgba(29, 168, 193, 1)" stroke-width="2"></path><path d="M46.67 280C46.67 271.79 94.67 268.95 140 268.95C149.57 268.95 156.47 273.06 156.47 280C156.47 289.64 152.26 302.11 140 302.11C97.36 302.11 46.67 288.37 46.67 280" stroke="rgba(193, 29, 112, 1)" stroke-width="2"></path><path d="M224.53 420C230.87 389.07 252.37 375.45 280 375.45C307.32 375.45 316.67 390.72 334.44 420C372.67 483 407.64 519.77 392 560C380.42 589.77 336 560 280 560C261.08 560 248.02 574.8 242.16 560C220.29 504.8 211.95 481.35 224.53 420" stroke="rgba(29, 168, 193, 1)" stroke-width="2"></path><path d="M1529.76 420C1529.76 415.04 1536.96 410.45 1540 410.45C1542.08 410.45 1540 415.23 1540 420C1540 425.52 1542.17 431.05 1540 431.05C1537.05 431.05 1529.76 425.34 1529.76 420" stroke="rgba(193, 29, 112, 1)" stroke-width="2"></path><path d="M0 540C2.54 540 9.66 553.03 9.66 560C9.66 563.03 1.57 563.26 0 560C-3.26 553.26 -2.29 540 0 540" stroke="rgba(29, 168, 193, 1)" stroke-width="2"></path></g><defs><mask id="SvgjsMask1174"><rect width="1440" height="560" fill="#ffffff"></rect></mask></defs></svg>