<svg xmlns="http://www.w3.org/2000/svg" version="1.1" xmlns:xlink="http://www.w3.org/1999/xlink" xmlns:svgjs="http://svgjs.dev/svgjs" width="150" height="150" preserveAspectRatio="none" viewBox="0 0 150 150"><g mask="url(&quot;#SvgjsMask1230&quot;)" fill="none"><path d="M8.77 38C8.77 33.6 1.24 35.42 0 30.05C-3.15 16.42 -8.39 6.63 0 0C10.61 -8.39 19 0 38 0C57 0 57 0 76 0C95 0 95 0 114 0C131.18 0 133.2 -3.16 148.35 0C152.2 0.8 151.59 3.65 152 7.92C153.41 22.65 152 22.96 152 38C152 57 152 57 152 76C152 92.37 155.82 94.72 152 108.74C150.64 113.72 142.01 109 141.64 114C140.42 130.63 156.1 142 148.83 152C142.28 161 131.42 152 114 152C97.93 152 96.8 154.54 81.85 152C77.8 151.31 79.08 145.53 76 145.53C72.62 145.53 73.42 151.23 68.93 152C54.42 154.47 53.47 152 38 152C24.96 152 17.91 159.71 11.92 152C3.16 140.71 12.92 131.89 8.51 114C6.96 107.71 1.39 109.85 0 103.64C-2.87 90.85 0 89.82 0 76C0 62.89 -2.81 61.96 0 49.79C1.58 42.96 8.77 43.47 8.77 38" stroke="rgba(135, 29, 193, 1)" stroke-width="2"></path><path d="M114 37.21C113.57 37.21 113.34 37.63 113.34 38C113.34 38.32 113.61 38.58 114 38.58C114.89 38.58 115.9 38.34 115.9 38C115.9 37.65 114.85 37.21 114 37.21" stroke="rgba(135, 29, 193, 1)" stroke-width="2"></path><path d="M38 65.8C30.29 65.8 24.52 70.73 24.52 76C24.52 81.48 30.13 87.3 38 87.3C55.04 87.3 74.35 81.4 74.35 76C74.35 70.65 55.21 65.8 38 65.8" stroke="rgba(135, 29, 193, 1)" stroke-width="2"></path><path d="M20.95 38C10.58 28.39 6.27 30.37 0 19C-4.21 11.37 -6.33 3.17 0 0C12.67 -6.33 19 0 38 0C57 0 57 0 76 0C95 0 95 0 114 0C122.04 0 130.08 -3.52 130.08 0C130.08 5.19 121.78 8.49 114 17.42C105.23 27.49 96.97 28.35 96.97 38C96.97 46.24 103.85 52.06 114 53.2C131.37 55.14 141.53 37.88 152 44.16C160.53 49.28 152 60.08 152 76C152 85.06 157.68 88.58 152 94.12C138.68 107.1 133.05 103.7 114 113.05C112.79 113.64 112.76 113.58 111.47 114C93.76 119.72 91.68 116.1 76 125.32C59.36 135.1 62.37 141.1 46.84 152C43.37 154.44 42.42 152 38 152C34.28 152 31.78 155.06 30.55 152C24.13 136.06 20.26 130.92 22.69 114C23.98 104.99 28.61 102.6 38 100.14C55.27 95.6 60.9 106.95 76 100C87.14 94.88 90.48 87.33 90.48 76C90.48 67.19 85.5 63.65 76 59.71C59.26 52.76 55.07 60.95 38 54.22C27.54 50.1 29.58 46 20.95 38" stroke="rgba(135, 29, 193, 1)" stroke-width="2"></path><path d="M0 66.17C2.66 66.17 9.19 71.02 9.19 76C9.19 81.12 2.63 86.36 0 86.36C-1.97 86.36 0 81.18 0 76C0 71.09 -1.94 66.17 0 66.17" stroke="rgba(135, 29, 193, 1)" stroke-width="2"></path><path d="M100.12 152C100.12 138.72 106.81 115.9 114 115.9C121.27 115.9 129.04 138.96 129.04 152C129.04 157.01 121.52 152 114 152C107.06 152 100.12 156.77 100.12 152" stroke="rgba(135, 29, 193, 1)" stroke-width="2"></path><path d="M33.13 38C33.13 30.03 32.78 27.6 38 20.73C47.22 8.6 48.82 7.19 62 0C67.82 -3.17 69 0 76 0C89.3 0 101.73 -7.17 102.6 0C104.03 11.83 92.15 19.42 80.59 38C78.85 40.79 79.15 42.41 76 42.75C57.86 44.72 56.21 44.65 38 42.63C34.78 42.27 33.13 40.98 33.13 38" stroke="rgba(135, 29, 193, 1)" stroke-width="2"></path><path d="M22.8 0C22.8 2.04 8.58 7.95 0 7.95C-2.82 7.95 -2.95 1.03 0 0C8.45 -2.95 22.8 -1.93 22.8 0" stroke="rgba(135, 29, 193, 1)" stroke-width="2"></path><path d="M105.56 76C105.56 71.41 108.52 68.55 114 67.82C131.74 65.47 135.65 66.32 152 69.84C154.65 70.41 152 72.92 152 76C152 77.75 153.56 78.96 152 79.51C134.56 85.61 130.57 90.55 114 89.3C107.35 88.8 105.56 82.15 105.56 76" stroke="rgba(135, 29, 193, 1)" stroke-width="2"></path><path d="M36.87 114C36.87 113.32 37.29 112.97 38 112.97C40.78 112.97 43.85 112.77 43.85 114C43.85 115.52 40.15 118.47 38 118.47C36.66 118.47 36.87 116.07 36.87 114" stroke="rgba(135, 29, 193, 1)" stroke-width="2"></path></g><defs><mask id="SvgjsMask1230"><rect width="150" height="150" fill="#ffffff"></rect></mask></defs></svg>